<!DOCTYPE svg PUBLIC "-//W3C//DTD SVG 1.1//EN" "http://www.w3.org/Graphics/SVG/1.1/DTD/svg11.dtd">
<!-- Uploaded to: SVG Repo, www.svgrepo.com, Transformed by: SVG Repo Mixer Tools -->
<svg fill="#ffffff" height="800px" width="800px" version="1.1" id="Layer_1" xmlns="http://www.w3.org/2000/svg" xmlns:xlink="http://www.w3.org/1999/xlink" viewBox="0 0 297 297" xml:space="preserve" stroke="#ffffff">
<g id="SVGRepo_bgCarrier" stroke-width="0"/>
<g id="SVGRepo_tracerCarrier" stroke-linecap="round" stroke-linejoin="round"/>
<g id="SVGRepo_iconCarrier"> <g> <g> <g> <path d="M42.352,106.148C18.999,106.148,0,125.147,0,148.5c0,23.353,18.999,42.352,42.352,42.352 c23.353,0,42.352-18.999,42.352-42.352C84.704,125.147,65.705,106.148,42.352,106.148z"/> <path d="M148.5,106.148c-23.353,0-42.352,18.999-42.352,42.352c0,23.353,18.999,42.352,42.352,42.352 s42.352-18.999,42.352-42.352C190.852,125.147,171.853,106.148,148.5,106.148z"/> <path d="M254.648,106.148c-23.353,0-42.352,18.999-42.352,42.352c0,23.353,18.999,42.352,42.352,42.352S297,171.853,297,148.5 C297,125.147,278.001,106.148,254.648,106.148z"/> </g> </g> </g> </g>
</svg>